<svg width="416" height="110" viewBox="0 0 416 110" fill="none" xmlns="http://www.w3.org/2000/svg">
<rect width="416" height="110" fill="white"/>
<rect x="5" y="5" width="32" height="32" rx="3" fill="#3F3F3F"/>
<path d="M20.8984 23.8027H17.0254L16.0176 26H14.5469L19.0234 16.3848L23.3418 26H21.8477L20.8984 23.8027ZM20.3418 22.5195L19 19.4434L17.5938 22.5195H20.3418ZM25.8438 16.9531V26H24.4785V16.9531H25.8438Z" fill="white"/>
<path d="M34.8193 34.0684H34.104L33.8086 33.7656C33.4945 33.9674 33.1445 34.0684 32.7588 34.0684C32.2591 34.0684 31.8156 33.8991 31.4282 33.5605C31.0067 33.1878 30.7959 32.7118 30.7959 32.1323C30.7959 31.5643 30.9953 31.0907 31.394 30.7114C31.7814 30.3436 32.2388 30.1597 32.7661 30.1597C33.2446 30.1597 33.6735 30.3208 34.0527 30.6431C34.5085 31.0304 34.7363 31.5358 34.7363 32.1592C34.7363 32.6475 34.5565 33.0812 34.1968 33.4604L34.8193 34.0684ZM33.2544 32.5083L33.8013 33.0527C34.0422 32.8021 34.1626 32.492 34.1626 32.1226C34.1626 31.7173 34.0283 31.3779 33.7598 31.1045C33.4912 30.8311 33.1576 30.6943 32.7588 30.6943C32.3551 30.6943 32.0231 30.8311 31.7627 31.1045C31.5007 31.3763 31.3696 31.7205 31.3696 32.1372C31.3696 32.5441 31.5047 32.877 31.7749 33.1357C32.0565 33.4027 32.3779 33.5361 32.7393 33.5361C32.985 33.5361 33.2072 33.48 33.4058 33.3677L32.5195 32.5083H33.2544Z" fill="#C2C2C2"/>
<rect x="12" y="39" width="32" height="32" rx="3" fill="#3F3F3F"/>
<path d="M30.5762 52.2363H26.9492V54.4102H30.4707V55.6934H26.9492V58.7168H30.5762V60H25.584V50.9531H30.5762V52.2363Z" fill="white"/>
<path d="M40.96 67.0845H39.3462L38.9263 68H38.3135L40.1787 63.9937L41.978 68H41.3555L40.96 67.0845ZM40.728 66.5498L40.1689 65.2681L39.583 66.5498H40.728Z" fill="#C2C2C2"/>
<rect x="19" y="73" width="32" height="32" rx="3" fill="#3F3F3F"/>
<path d="M46.9785 101.465H48.7876V102H46.0435L47.894 98.7651H46.3462V98.2305H48.8291L46.9785 101.465Z" fill="#C2C2C2"/>
<path d="M27.6738 86.0376H30.9302V87H25.9907L29.3218 81.1772H26.5356V80.2148H31.0049L27.6738 86.0376Z" fill="white"/>
<path d="M36.7114 90.1772H33.9912V91.8076H36.6323V92.77H33.9912V95.0376H36.7114V96H32.9673V89.2148H36.7114V90.1772ZM38.0562 96V88.7534L43.0044 93.9302V89.2148H44.0283V96.4131L39.0801 91.2495V96H38.0562Z" fill="white"/>
<line x1="37.2475" y1="83.2475" x2="26.2475" y2="94.2475" stroke="white" stroke-width="0.7"/>
<rect x="39" y="5" width="32" height="32" rx="3" fill="#3F3F3F"/>
<path d="M55.5762 18.2363H51.9492V20.4102H55.4707V21.6934H51.9492V24.7168H55.5762V26H50.584V16.9531H55.5762V18.2363ZM58.7344 16.9531V26H57.3691V16.9531H58.7344Z" fill="white"/>
<path d="M64.3345 30.2305L65.3159 32.75L66.3413 30.0474L67.3228 32.75L68.3652 30.2305H68.9829L67.2983 34.2393L66.3291 31.5684L65.3184 34.2417L63.7168 30.2305H64.3345Z" fill="#C2C2C2"/>
<rect x="46" y="39" width="32" height="32" rx="3" fill="#3F3F3F"/>
<path d="M62.4492 50.9531V60H61.084V50.9531H62.4492Z" fill="white"/>
<path d="M75.668 64.792L75.2065 65.0654C75.1203 64.9157 75.0381 64.818 74.96 64.7725C74.8786 64.7204 74.7736 64.6943 74.645 64.6943C74.4871 64.6943 74.3561 64.7391 74.252 64.8286C74.1478 64.9165 74.0957 65.0272 74.0957 65.1606C74.0957 65.3446 74.2324 65.4927 74.5059 65.605L74.8818 65.7588C75.1878 65.8825 75.4116 66.0339 75.5532 66.2129C75.6948 66.3903 75.7656 66.6084 75.7656 66.8672C75.7656 67.2139 75.6501 67.5003 75.4189 67.7266C75.1862 67.9544 74.8973 68.0684 74.5522 68.0684C74.2251 68.0684 73.9549 67.9715 73.7417 67.7778C73.5317 67.5841 73.4007 67.3115 73.3486 66.96L73.9248 66.833C73.9508 67.0544 73.9964 67.2074 74.0615 67.292C74.1787 67.4548 74.3496 67.5361 74.5742 67.5361C74.7516 67.5361 74.8989 67.4767 75.0161 67.3579C75.1333 67.2391 75.1919 67.0885 75.1919 66.9062C75.1919 66.833 75.1813 66.7663 75.1602 66.7061C75.1406 66.6442 75.1089 66.5881 75.0649 66.5376C75.0226 66.4855 74.9673 66.4375 74.8989 66.3936C74.8306 66.348 74.7492 66.3049 74.6548 66.2642L74.291 66.1128C73.7751 65.8947 73.5171 65.5757 73.5171 65.1558C73.5171 64.8726 73.6253 64.6357 73.8418 64.4453C74.0583 64.2533 74.3276 64.1572 74.6499 64.1572C75.0845 64.1572 75.4238 64.3688 75.668 64.792Z" fill="#C2C2C2"/>
<rect x="53" y="73" width="32" height="32" rx="3" fill="#3F3F3F"/>
<path d="M64.4492 84.9531V94H63.084V84.9531H64.4492ZM66.623 94V84.3379L73.2207 91.2402V84.9531H74.5859V94.5508L67.9883 87.666V94H66.623Z" fill="white"/>
<path d="M81.1494 100.03L80.1118 98.2305H80.7588L81.479 99.5073L82.2358 98.2305H82.8877L81.8013 100.03L82.9414 102H82.3042L81.4692 100.557L80.6099 102H79.9653L81.1494 100.03Z" fill="#C2C2C2"/>
<rect x="73" y="5" width="32" height="32" rx="3" fill="#3F3F3F"/>
<path d="M86.9492 16.9531V22.4023C86.9492 23.1797 87.0762 23.748 87.3301 24.1074C87.709 24.627 88.2422 24.8867 88.9297 24.8867C89.6211 24.8867 90.1562 24.627 90.5352 24.1074C90.7891 23.7598 90.916 23.1914 90.916 22.4023V16.9531H92.2812V22.7773C92.2812 23.7305 91.9844 24.5156 91.3906 25.1328C90.7227 25.8203 89.9023 26.1641 88.9297 26.1641C87.957 26.1641 87.1387 25.8203 86.4746 25.1328C85.8809 24.5156 85.584 23.7305 85.584 22.7773V16.9531H86.9492Z" fill="white"/>
<path d="M102.705 30.7651H101.193V31.6709H102.661V32.2056H101.193V33.4653H102.705V34H100.625V30.2305H102.705V30.7651Z" fill="#C2C2C2"/>
<rect x="80" y="39" width="32" height="32" rx="3" fill="#3F3F3F"/>
<path d="M97.8984 57.8027H94.0254L93.0176 60H91.5469L96.0234 50.3848L100.342 60H98.8477L97.8984 57.8027ZM97.3418 56.5195L96 53.4434L94.5938 56.5195H97.3418Z" fill="white"/>
<path d="M106.819 68V64.2305H107.61C107.989 64.2305 108.289 64.2679 108.508 64.3428C108.744 64.416 108.958 64.5405 109.15 64.7163C109.539 65.0711 109.734 65.5374 109.734 66.1152C109.734 66.6947 109.531 67.1634 109.126 67.5215C108.923 67.7005 108.709 67.825 108.486 67.895C108.278 67.965 107.983 68 107.6 68H106.819ZM107.388 67.4653H107.644C107.9 67.4653 108.112 67.4385 108.281 67.3848C108.451 67.3278 108.604 67.2375 108.74 67.1138C109.02 66.8582 109.16 66.5254 109.16 66.1152C109.16 65.7018 109.022 65.3665 108.745 65.1094C108.496 64.8799 108.129 64.7651 107.644 64.7651H107.388V67.4653Z" fill="#C2C2C2"/>
<rect x="87" y="73" width="32" height="32" rx="3" fill="#3F3F3F"/>
<path d="M116.731 98.4331V99.1069C116.403 98.8319 116.062 98.6943 115.711 98.6943C115.324 98.6943 114.997 98.8335 114.732 99.1118C114.465 99.3885 114.332 99.7271 114.332 100.127C114.332 100.523 114.465 100.857 114.732 101.128C114.999 101.4 115.326 101.536 115.713 101.536C115.914 101.536 116.084 101.504 116.224 101.438C116.302 101.406 116.382 101.362 116.465 101.307C116.55 101.251 116.639 101.185 116.731 101.106V101.792C116.406 101.976 116.064 102.068 115.706 102.068C115.167 102.068 114.708 101.88 114.327 101.504C113.947 101.125 113.758 100.668 113.758 100.132C113.758 99.6522 113.917 99.2241 114.234 98.8481C114.625 98.3875 115.13 98.1572 115.75 98.1572C116.089 98.1572 116.416 98.2492 116.731 98.4331Z" fill="#C2C2C2"/>
<path d="M95.7749 80.5796V81.7925C95.1831 81.2974 94.5708 81.0498 93.938 81.0498C93.2407 81.0498 92.6533 81.3003 92.1758 81.8013C91.6953 82.2993 91.4551 82.9087 91.4551 83.6294C91.4551 84.3413 91.6953 84.9419 92.1758 85.4312C92.6562 85.9204 93.2451 86.165 93.9424 86.165C94.3027 86.165 94.6089 86.1064 94.8608 85.9893C95.0015 85.9307 95.1465 85.8516 95.2959 85.752C95.4482 85.6523 95.6079 85.5322 95.7749 85.3916V86.6265C95.189 86.9575 94.5737 87.123 93.9292 87.123C92.9595 87.123 92.1318 86.7847 91.4463 86.1079C90.7637 85.4253 90.4224 84.6021 90.4224 83.6382C90.4224 82.7739 90.708 82.0034 91.2793 81.3267C91.9824 80.4976 92.8921 80.083 94.0083 80.083C94.6177 80.083 95.2065 80.2485 95.7749 80.5796ZM98.2886 82.8691H101.215V80.2148H102.239V87H101.215V83.8315H98.2886V87H97.2646V80.2148H98.2886V82.8691Z" fill="white"/>
<path d="M106.162 94.3521H103.257L102.501 96H101.398L104.756 88.7886L107.995 96H106.874L106.162 94.3521ZM105.745 93.3896L104.738 91.0825L103.684 93.3896H105.745ZM108.847 96V88.7534L113.795 93.9302V89.2148H114.819V96.4131L109.871 91.2495V96H108.847Z" fill="white"/>
<line x1="107.247" y1="83.2475" x2="96.2475" y2="94.2475" stroke="white" stroke-width="0.7"/>
<rect x="107" y="5" width="32" height="32" rx="3" fill="#3F3F3F"/>
<path d="M118.164 20.648C118.3 20.656 118.464 20.668 118.656 20.684C118.856 20.692 119.068 20.7 119.292 20.708C119.524 20.716 119.744 20.72 119.952 20.72C120.112 20.72 120.332 20.72 120.612 20.72C120.892 20.72 121.208 20.72 121.56 20.72C121.92 20.72 122.296 20.72 122.688 20.72C123.08 20.72 123.468 20.72 123.852 20.72C124.244 20.72 124.612 20.72 124.956 20.72C125.3 20.72 125.604 20.72 125.868 20.72C126.132 20.72 126.336 20.72 126.48 20.72C126.768 20.72 127.028 20.712 127.26 20.696C127.492 20.672 127.68 20.656 127.824 20.648V22.136C127.688 22.128 127.496 22.116 127.248 22.1C127 22.084 126.744 22.076 126.48 22.076C126.344 22.076 126.14 22.076 125.868 22.076C125.604 22.076 125.3 22.076 124.956 22.076C124.612 22.076 124.244 22.076 123.852 22.076C123.468 22.076 123.08 22.076 122.688 22.076C122.296 22.076 121.92 22.076 121.56 22.076C121.208 22.076 120.892 22.076 120.612 22.076C120.332 22.076 120.112 22.076 119.952 22.076C119.624 22.076 119.296 22.084 118.968 22.1C118.64 22.108 118.372 22.12 118.164 22.136V20.648Z" fill="white"/>
<path d="M135.716 32.3936L136.883 34H136.187L135.11 32.457H135.008V34H134.439V30.2305H135.105C135.604 30.2305 135.963 30.3241 136.185 30.5112C136.429 30.7196 136.551 30.9946 136.551 31.3364C136.551 31.6034 136.474 31.8328 136.321 32.0249C136.168 32.217 135.966 32.3398 135.716 32.3936ZM135.008 31.9614H135.188C135.727 31.9614 135.997 31.7555 135.997 31.3438C135.997 30.958 135.735 30.7651 135.21 30.7651H135.008V31.9614Z" fill="#C2C2C2"/>
<rect x="114" y="39" width="32" height="32" rx="3" fill="#3F3F3F"/>
<path d="M125.133 55.4355C125.133 54.1621 125.6 53.0684 126.533 52.1543C127.463 51.2402 128.58 50.7832 129.885 50.7832C131.174 50.7832 132.279 51.2441 133.201 52.166C134.127 53.0879 134.59 54.1953 134.59 55.4883C134.59 56.7891 134.125 57.8926 133.195 58.7988C132.262 59.709 131.135 60.1641 129.814 60.1641C128.646 60.1641 127.598 59.7598 126.668 58.9512C125.645 58.0566 125.133 56.8848 125.133 55.4355ZM126.51 55.4531C126.51 56.4531 126.846 57.2754 127.518 57.9199C128.186 58.5645 128.957 58.8867 129.832 58.8867C130.781 58.8867 131.582 58.5586 132.234 57.9023C132.887 57.2383 133.213 56.4297 133.213 55.4766C133.213 54.5117 132.891 53.7031 132.246 53.0508C131.605 52.3945 130.812 52.0664 129.867 52.0664C128.926 52.0664 128.131 52.3945 127.482 53.0508C126.834 53.6992 126.51 54.5 126.51 55.4531Z" fill="white"/>
<path d="M143.79 64.7651H142.477V65.6709H143.744V66.2056H142.477V68H141.908V64.2305H143.79V64.7651Z" fill="#C2C2C2"/>
<rect x="121" y="73" width="32" height="32" rx="3" fill="#3F3F3F"/>
<path d="M127.133 89.4355C127.133 88.1621 127.6 87.0684 128.533 86.1543C129.463 85.2402 130.58 84.7832 131.885 84.7832C133.174 84.7832 134.279 85.2441 135.201 86.166C136.127 87.0879 136.59 88.1953 136.59 89.4883C136.59 90.7891 136.125 91.8926 135.195 92.7988C134.262 93.709 133.135 94.1641 131.814 94.1641C130.646 94.1641 129.598 93.7598 128.668 92.9512C127.645 92.0566 127.133 90.8848 127.133 89.4355ZM128.51 89.4531C128.51 90.4531 128.846 91.2754 129.518 91.9199C130.186 92.5645 130.957 92.8867 131.832 92.8867C132.781 92.8867 133.582 92.5586 134.234 91.9023C134.887 91.2383 135.213 90.4297 135.213 89.4766C135.213 88.5117 134.891 87.7031 134.246 87.0508C133.605 86.3945 132.812 86.0664 131.867 86.0664C130.926 86.0664 130.131 86.3945 129.482 87.0508C128.834 87.6992 128.51 88.5 128.51 89.4531ZM138.307 94V84.3379L144.904 91.2402V84.9531H146.27V94.5508L139.672 87.666V94H138.307Z" fill="white"/>
<path d="M148.258 98.2305L149.301 100.843L150.358 98.2305H150.98L149.289 102.283L147.636 98.2305H148.258Z" fill="#C2C2C2"/>
<rect x="107" y="5" width="32" height="32" rx="3" fill="#3F3F3F"/>
<path d="M135.716 32.3936L136.883 34H136.187L135.11 32.457H135.008V34H134.439V30.2305H135.105C135.604 30.2305 135.963 30.3241 136.185 30.5112C136.429 30.7196 136.551 30.9946 136.551 31.3364C136.551 31.6034 136.474 31.8328 136.321 32.0249C136.168 32.217 135.966 32.3398 135.716 32.3936ZM135.008 31.9614H135.188C135.727 31.9614 135.997 31.7555 135.997 31.3438C135.997 30.958 135.735 30.7651 135.21 30.7651H135.008V31.9614Z" fill="#C2C2C2"/>
<path d="M115.385 19.549C115.199 19.321 114.992 19.087 114.764 18.847C114.542 18.607 114.314 18.376 114.08 18.154C113.852 17.932 113.633 17.734 113.423 17.56L114.161 16.912C114.377 17.086 114.605 17.29 114.845 17.524C115.085 17.752 115.319 17.989 115.547 18.235C115.781 18.475 115.982 18.697 116.15 18.901L115.385 19.549Z" fill="white"/>
<path d="M120.627 24.5767C120.627 23.6216 120.977 22.8013 121.677 22.1157C122.375 21.4302 123.212 21.0874 124.191 21.0874C125.158 21.0874 125.987 21.4331 126.678 22.1245C127.373 22.8159 127.72 23.6465 127.72 24.6162C127.72 25.5918 127.371 26.4194 126.674 27.0991C125.974 27.7817 125.128 28.123 124.138 28.123C123.262 28.123 122.476 27.8198 121.778 27.2134C121.011 26.5425 120.627 25.6636 120.627 24.5767ZM121.66 24.5898C121.66 25.3398 121.912 25.9565 122.416 26.4399C122.917 26.9233 123.495 27.165 124.151 27.165C124.863 27.165 125.464 26.9189 125.953 26.4268C126.442 25.9287 126.687 25.3223 126.687 24.6074C126.687 23.8838 126.445 23.2773 125.962 22.7881C125.481 22.2959 124.887 22.0498 124.178 22.0498C123.472 22.0498 122.875 22.2959 122.389 22.7881C121.903 23.2744 121.66 23.875 121.66 24.5898ZM130.031 21.2148V25.3018C130.031 25.8848 130.126 26.311 130.317 26.5806C130.601 26.9702 131.001 27.165 131.517 27.165C132.035 27.165 132.437 26.9702 132.721 26.5806C132.911 26.3198 133.006 25.8936 133.006 25.3018V21.2148H134.03V25.583C134.03 26.2979 133.808 26.8867 133.362 27.3496C132.861 27.8652 132.246 28.123 131.517 28.123C130.787 28.123 130.173 27.8652 129.675 27.3496C129.23 26.8867 129.007 26.2979 129.007 25.583V21.2148H130.031Z" fill="white"/>
<line x1="125.247" y1="15.2475" x2="114.247" y2="26.2475" stroke="white" stroke-width="0.7"/>
<rect x="114" y="39" width="32" height="32" rx="3" fill="#3F3F3F"/>
<path d="M125.133 55.4355C125.133 54.1621 125.6 53.0684 126.533 52.1543C127.463 51.2402 128.58 50.7832 129.885 50.7832C131.174 50.7832 132.279 51.2441 133.201 52.166C134.127 53.0879 134.59 54.1953 134.59 55.4883C134.59 56.7891 134.125 57.8926 133.195 58.7988C132.262 59.709 131.135 60.1641 129.814 60.1641C128.646 60.1641 127.598 59.7598 126.668 58.9512C125.645 58.0566 125.133 56.8848 125.133 55.4355ZM126.51 55.4531C126.51 56.4531 126.846 57.2754 127.518 57.9199C128.186 58.5645 128.957 58.8867 129.832 58.8867C130.781 58.8867 131.582 58.5586 132.234 57.9023C132.887 57.2383 133.213 56.4297 133.213 55.4766C133.213 54.5117 132.891 53.7031 132.246 53.0508C131.605 52.3945 130.812 52.0664 129.867 52.0664C128.926 52.0664 128.131 52.3945 127.482 53.0508C126.834 53.6992 126.51 54.5 126.51 55.4531Z" fill="white"/>
<path d="M143.79 64.7651H142.477V65.6709H143.744V66.2056H142.477V68H141.908V64.2305H143.79V64.7651Z" fill="#C2C2C2"/>
<rect x="121" y="73" width="32" height="32" rx="3" fill="#3F3F3F"/>
<path d="M148.258 98.2305L149.301 100.843L150.358 98.2305H150.98L149.289 102.283L147.636 98.2305H148.258Z" fill="#C2C2C2"/>
<path d="M128.61 80.2148L130.487 84.917L132.39 80.2148H133.51L130.465 87.5098L127.49 80.2148H128.61Z" fill="white"/>
<path d="M133.152 92.5767C133.152 91.6216 133.502 90.8013 134.203 90.1157C134.9 89.4302 135.738 89.0874 136.716 89.0874C137.683 89.0874 138.512 89.4331 139.204 90.1245C139.898 90.8159 140.245 91.6465 140.245 92.6162C140.245 93.5918 139.896 94.4194 139.199 95.0991C138.499 95.7817 137.654 96.123 136.664 96.123C135.788 96.123 135.001 95.8198 134.304 95.2134C133.536 94.5425 133.152 93.6636 133.152 92.5767ZM134.185 92.5898C134.185 93.3398 134.437 93.9565 134.941 94.4399C135.442 94.9233 136.021 95.165 136.677 95.165C137.389 95.165 137.989 94.9189 138.479 94.4268C138.968 93.9287 139.212 93.3223 139.212 92.6074C139.212 91.8838 138.971 91.2773 138.487 90.7881C138.007 90.2959 137.412 90.0498 136.703 90.0498C135.997 90.0498 135.401 90.2959 134.915 90.7881C134.428 91.2744 134.185 91.875 134.185 92.5898ZM141.533 96V88.7534L146.481 93.9302V89.2148H147.505V96.4131L142.557 91.2495V96H141.533Z" fill="white"/>
<line x1="138.247" y1="83.2475" x2="127.247" y2="94.2475" stroke="white" stroke-width="0.7"/>
<rect x="209" y="5" width="32" height="32" rx="3" fill="#3F3F3F"/>
<path d="M220.029 16.9531L222.385 23L224.846 16.5137L227.201 23L229.703 16.9531H231.186L227.143 26.5742L224.816 20.1641L222.391 26.5801L218.547 16.9531H220.029Z" fill="white"/>
<path d="M236.324 30.2305V32.501C236.324 32.8249 236.377 33.0617 236.483 33.2114C236.641 33.4279 236.863 33.5361 237.149 33.5361C237.438 33.5361 237.66 33.4279 237.818 33.2114C237.924 33.0666 237.977 32.8298 237.977 32.501V30.2305H238.546V32.6572C238.546 33.0544 238.422 33.3815 238.175 33.6387C237.896 33.9251 237.555 34.0684 237.149 34.0684C236.744 34.0684 236.403 33.9251 236.126 33.6387C235.879 33.3815 235.755 33.0544 235.755 32.6572V30.2305H236.324Z" fill="#C2C2C2"/>
<rect x="216" y="39" width="32" height="32" rx="3" fill="#3F3F3F"/>
<path d="M232.58 52.2363V60H231.215V52.2363H229.135V50.9531H234.654V52.2363H232.58Z" fill="white"/>
<path d="M245.548 64.2305V66.6694C245.548 66.9608 245.528 67.1781 245.487 67.3213C245.447 67.484 245.377 67.6216 245.28 67.7339C245.089 67.9569 244.837 68.0684 244.523 68.0684C244.285 68.0684 244.063 68.0065 243.856 67.8828L244.135 67.397C244.273 67.4897 244.403 67.5361 244.523 67.5361C244.692 67.5361 244.809 67.4718 244.875 67.3433C244.943 67.2147 244.977 66.9901 244.977 66.6694V64.2305H245.548Z" fill="#C2C2C2"/>
<rect x="223" y="73" width="32" height="32" rx="3" fill="#3F3F3F"/>
<path d="M235.584 94V84.9531H237.482C238.393 84.9531 239.111 85.043 239.639 85.2227C240.205 85.3984 240.719 85.6973 241.18 86.1191C242.113 86.9707 242.58 88.0898 242.58 89.4766C242.58 90.8672 242.094 91.9922 241.121 92.8516C240.633 93.2812 240.121 93.5801 239.586 93.748C239.086 93.916 238.377 94 237.459 94H235.584ZM236.949 92.7168H237.564C238.178 92.7168 238.688 92.6523 239.094 92.5234C239.5 92.3867 239.867 92.1699 240.195 91.873C240.867 91.2598 241.203 90.4609 241.203 89.4766C241.203 88.4844 240.871 87.6797 240.207 87.0625C239.609 86.5117 238.729 86.2363 237.564 86.2363H236.949V92.7168Z" fill="white"/>
<path d="M248.51 102L249.304 97.9473L250.598 100.877L251.938 97.9473L252.651 102H252.067L251.704 99.7246L250.588 102.173L249.504 99.7222L249.099 102H248.51Z" fill="#C2C2C2"/>
<rect x="243" y="5" width="32" height="32" rx="3" fill="#3F3F3F"/>
<path d="M259.148 22.1445L261.949 26H260.279L257.695 22.2969H257.449V26H256.084V16.9531H257.684C258.879 16.9531 259.742 17.1777 260.273 17.627C260.859 18.127 261.152 18.7871 261.152 19.6074C261.152 20.248 260.969 20.7988 260.602 21.2598C260.234 21.7207 259.75 22.0156 259.148 22.1445ZM257.449 21.1074H257.883C259.176 21.1074 259.822 20.6133 259.822 19.625C259.822 18.6992 259.193 18.2363 257.936 18.2363H257.449V21.1074Z" fill="white"/>
<path d="M272.546 30.2305V34H271.977V30.2305H272.546Z" fill="#C2C2C2"/>
<rect x="250" y="39" width="32" height="32" rx="3" fill="#3F3F3F"/>
<path d="M261.584 60V50.3379L268.182 57.2402V50.9531H269.547V60.5508L262.949 53.666V60H261.584Z" fill="white"/>
<path d="M277.705 65.7344L279.172 64.2305H279.932L278.228 65.937L279.941 68H279.18L277.822 66.3228L277.705 66.4399V68H277.136V64.2305H277.705V65.7344Z" fill="#C2C2C2"/>
<rect x="257" y="73" width="32" height="32" rx="3" fill="#3F3F3F"/>
<path d="M267.768 94L269.672 84.2734L272.777 91.3047L275.994 84.2734L277.705 94H276.305L275.432 88.5391L272.754 94.416L270.152 88.5332L269.18 94H267.768Z" fill="white"/>
<path d="M286.143 101.294L286.631 101.485L285.936 102.879L285.564 102.725L286.143 101.294Z" fill="#C2C2C2"/>
<rect x="277" y="5" width="32" height="32" rx="3" fill="#3F3F3F"/>
<path d="M291.912 22.0918L288.959 16.9531H290.529L292.598 20.5684L294.672 16.9531H296.242L293.277 22.0918V26H291.912V22.0918Z" fill="white"/>
<path d="M302.796 32.0981C302.796 31.5675 302.99 31.1118 303.379 30.731C303.767 30.3501 304.232 30.1597 304.776 30.1597C305.313 30.1597 305.774 30.3517 306.158 30.7358C306.543 31.12 306.736 31.5814 306.736 32.1201C306.736 32.6621 306.543 33.1219 306.155 33.4995C305.766 33.8787 305.297 34.0684 304.747 34.0684C304.26 34.0684 303.823 33.8999 303.436 33.563C303.009 33.1903 302.796 32.702 302.796 32.0981ZM303.37 32.1055C303.37 32.5221 303.51 32.8647 303.79 33.1333C304.068 33.4019 304.389 33.5361 304.754 33.5361C305.149 33.5361 305.483 33.3994 305.755 33.126C306.027 32.8493 306.163 32.5124 306.163 32.1152C306.163 31.7132 306.028 31.3763 305.76 31.1045C305.493 30.8311 305.162 30.6943 304.769 30.6943C304.376 30.6943 304.045 30.8311 303.775 31.1045C303.505 31.3747 303.37 31.7083 303.37 32.1055Z" fill="#C2C2C2"/>
<rect x="311" y="5" width="32" height="32" rx="3" fill="#3F3F3F"/>
<path d="M325.949 22.3262V26H324.584V16.9531H326.131C326.889 16.9531 327.461 17.0059 327.848 17.1113C328.238 17.2168 328.582 17.416 328.879 17.709C329.398 18.2168 329.658 18.8574 329.658 19.6309C329.658 20.459 329.381 21.1152 328.826 21.5996C328.271 22.084 327.523 22.3262 326.582 22.3262H325.949ZM325.949 21.0605H326.459C327.713 21.0605 328.34 20.5781 328.34 19.6133C328.34 18.6797 327.693 18.2129 326.4 18.2129H325.949V21.0605Z" fill="white"/>
<path d="M339.32 32.4692V34H338.751V30.2305H339.396C339.712 30.2305 339.95 30.2524 340.111 30.2964C340.274 30.3403 340.417 30.4233 340.541 30.5454C340.757 30.757 340.866 31.0239 340.866 31.3462C340.866 31.6912 340.75 31.9647 340.519 32.1665C340.288 32.3683 339.976 32.4692 339.584 32.4692H339.32ZM339.32 31.9419H339.533C340.055 31.9419 340.316 31.7409 340.316 31.3389C340.316 30.9499 340.047 30.7554 339.508 30.7554H339.32V31.9419Z" fill="#C2C2C2"/>
<rect x="284" y="39" width="32" height="32" rx="3" fill="#3F3F3F"/>
<path d="M302.699 52.3008L301.592 52.957C301.385 52.5977 301.188 52.3633 301 52.2539C300.805 52.1289 300.553 52.0664 300.244 52.0664C299.865 52.0664 299.551 52.1738 299.301 52.3887C299.051 52.5996 298.926 52.8652 298.926 53.1855C298.926 53.627 299.254 53.9824 299.91 54.252L300.812 54.6211C301.547 54.918 302.084 55.2812 302.424 55.7109C302.764 56.1367 302.934 56.6602 302.934 57.2812C302.934 58.1133 302.656 58.8008 302.102 59.3438C301.543 59.8906 300.85 60.1641 300.021 60.1641C299.236 60.1641 298.588 59.9316 298.076 59.4668C297.572 59.002 297.258 58.3477 297.133 57.5039L298.516 57.1992C298.578 57.7305 298.688 58.0977 298.844 58.3008C299.125 58.6914 299.535 58.8867 300.074 58.8867C300.5 58.8867 300.854 58.7441 301.135 58.459C301.416 58.1738 301.557 57.8125 301.557 57.375C301.557 57.1992 301.531 57.0391 301.48 56.8945C301.434 56.7461 301.357 56.6113 301.252 56.4902C301.15 56.3652 301.018 56.25 300.854 56.1445C300.689 56.0352 300.494 55.9316 300.268 55.834L299.395 55.4707C298.156 54.9473 297.537 54.1816 297.537 53.1738C297.537 52.4941 297.797 51.9258 298.316 51.4688C298.836 51.0078 299.482 50.7773 300.256 50.7773C301.299 50.7773 302.113 51.2852 302.699 52.3008Z" fill="white"/>
<path d="M312.804 64.2305V67.4653H313.912V68H312.235V64.2305H312.804Z" fill="#C2C2C2"/>
<rect x="291" y="73" width="32" height="32" rx="3" fill="#3F3F3F"/>
<path d="M308.338 84.9531V90.8066C308.338 91.5059 308.289 92.0273 308.191 92.3711C308.094 92.7617 307.928 93.0918 307.693 93.3613C307.236 93.8965 306.631 94.1641 305.877 94.1641C305.307 94.1641 304.773 94.0156 304.277 93.7188L304.945 92.5527C305.277 92.7754 305.588 92.8867 305.877 92.8867C306.283 92.8867 306.564 92.7324 306.721 92.4238C306.885 92.1152 306.967 91.5762 306.967 90.8066V84.9531H308.338Z" fill="white"/>
<path d="M319.889 101.727C319.889 101.635 319.923 101.556 319.989 101.49C320.056 101.423 320.136 101.39 320.229 101.39C320.321 101.39 320.401 101.423 320.468 101.49C320.535 101.556 320.568 101.636 320.568 101.729C320.568 101.823 320.535 101.904 320.468 101.971C320.403 102.036 320.323 102.068 320.229 102.068C320.132 102.068 320.052 102.036 319.987 101.971C319.922 101.906 319.889 101.824 319.889 101.727Z" fill="#C2C2C2"/>
<rect x="318" y="39" width="32" height="32" rx="3" fill="#3F3F3F"/>
<path d="M329.133 55.4355C329.133 54.1621 329.6 53.0684 330.533 52.1543C331.463 51.2402 332.58 50.7832 333.885 50.7832C335.174 50.7832 336.279 51.2441 337.201 52.166C338.127 53.0879 338.59 54.1953 338.59 55.4883C338.59 56.7891 338.125 57.8926 337.195 58.7988C336.262 59.709 335.135 60.1641 333.814 60.1641C332.646 60.1641 331.598 59.7598 330.668 58.9512C329.645 58.0566 329.133 56.8848 329.133 55.4355ZM330.51 55.4531C330.51 56.4531 330.846 57.2754 331.518 57.9199C332.186 58.5645 332.957 58.8867 333.832 58.8867C334.781 58.8867 335.582 58.5586 336.234 57.9023C336.887 57.2383 337.213 56.4297 337.213 55.4766C337.213 54.5117 336.891 53.7031 336.246 53.0508C335.605 52.3945 334.812 52.0664 333.867 52.0664C332.926 52.0664 332.131 52.3945 331.482 53.0508C330.834 53.6992 330.51 54.5 330.51 55.4531Z" fill="white"/>
<path d="M347.79 64.7651H346.477V65.6709H347.744V66.2056H346.477V68H345.908V64.2305H347.79V64.7651Z" fill="#C2C2C2"/>
<rect x="325" y="73" width="32" height="32" rx="3" fill="#3F3F3F"/>
<path d="M331.133 89.4355C331.133 88.1621 331.6 87.0684 332.533 86.1543C333.463 85.2402 334.58 84.7832 335.885 84.7832C337.174 84.7832 338.279 85.2441 339.201 86.166C340.127 87.0879 340.59 88.1953 340.59 89.4883C340.59 90.7891 340.125 91.8926 339.195 92.7988C338.262 93.709 337.135 94.1641 335.814 94.1641C334.646 94.1641 333.598 93.7598 332.668 92.9512C331.645 92.0566 331.133 90.8848 331.133 89.4355ZM332.51 89.4531C332.51 90.4531 332.846 91.2754 333.518 91.9199C334.186 92.5645 334.957 92.8867 335.832 92.8867C336.781 92.8867 337.582 92.5586 338.234 91.9023C338.887 91.2383 339.213 90.4297 339.213 89.4766C339.213 88.5117 338.891 87.7031 338.246 87.0508C337.605 86.3945 336.812 86.0664 335.867 86.0664C334.926 86.0664 334.131 86.3945 333.482 87.0508C332.834 87.6992 332.51 88.5 332.51 89.4531ZM342.307 94V84.3379L348.904 91.2402V84.9531H350.27V94.5508L343.672 87.666V94H342.307Z" fill="white"/>
<path d="M352.258 98.2305L353.301 100.843L354.358 98.2305H354.98L353.289 102.283L351.636 98.2305H352.258Z" fill="#C2C2C2"/>
<g opacity="0.8">
<rect x="345" y="5" width="32" height="32" rx="3" fill="#3F3F3F"/>
<path d="M362.752 15.824H366.616V16.856H363.868V23.54H362.752V15.824Z" fill="white"/>
<path d="M374.263 30.3916V34.4834H374.736V35.001H373.704V29.8765H374.736V30.3916H374.263Z" fill="#C2C2C2"/>
</g>
<g opacity="0.8">
<rect x="379" y="5" width="32" height="32" rx="3" fill="#3F3F3F"/>
<path d="M393.248 27.056H389.384V26.024H392.132V19.34H393.248V27.056Z" fill="white"/>
<path d="M407.953 34.4834V30.3916H407.477V29.8765H408.509V35.001H407.477V34.4834H407.953Z" fill="#C2C2C2"/>
</g>
<rect x="318" y="39" width="32" height="32" rx="3" fill="#3F3F3F"/>
<path d="M331.949 54.4922H335.852V50.9531H337.217V60H335.852V55.7754H331.949V60H330.584V50.9531H331.949V54.4922Z" fill="white"/>
<path d="M347.143 67.2944L347.631 67.4849L346.936 68.8789L346.564 68.7251L347.143 67.2944ZM347.009 65.8931C347.009 65.8019 347.042 65.723 347.109 65.6562C347.176 65.5895 347.255 65.5562 347.348 65.5562C347.441 65.5562 347.521 65.5895 347.587 65.6562C347.654 65.723 347.688 65.8027 347.688 65.8955C347.688 65.9899 347.654 66.0705 347.587 66.1372C347.522 66.2023 347.443 66.2349 347.348 66.2349C347.254 66.2349 347.173 66.2015 347.106 66.1348C347.041 66.0697 347.009 65.9891 347.009 65.8931Z" fill="#C2C2C2"/>
<g opacity="0.8">
<rect x="352" y="39" width="32" height="32" rx="3" fill="#3F3F3F"/>
<path d="M363.836 55.08C364.012 55.048 364.204 55.004 364.412 54.948C364.628 54.892 364.832 54.836 365.024 54.78C365.232 54.708 365.5 54.62 365.828 54.516C366.164 54.412 366.532 54.308 366.932 54.204C367.332 54.092 367.732 54 368.132 53.928C368.54 53.856 368.924 53.82 369.284 53.82C369.884 53.82 370.412 53.932 370.868 54.156C371.324 54.38 371.68 54.7 371.936 55.116C372.192 55.532 372.32 56.024 372.32 56.592C372.32 57.16 372.192 57.664 371.936 58.104C371.688 58.544 371.32 58.924 370.832 59.244C370.352 59.564 369.768 59.816 369.08 60C368.4 60.192 367.624 60.316 366.752 60.372L366.248 59.208C366.912 59.184 367.536 59.12 368.12 59.016C368.704 58.912 369.216 58.756 369.656 58.548C370.104 58.34 370.452 58.072 370.7 57.744C370.956 57.416 371.084 57.028 371.084 56.58C371.084 56.252 371.004 55.964 370.844 55.716C370.684 55.468 370.464 55.272 370.184 55.128C369.904 54.984 369.572 54.912 369.188 54.912C368.9 54.912 368.576 54.948 368.216 55.02C367.856 55.092 367.484 55.188 367.1 55.308C366.724 55.42 366.356 55.544 365.996 55.68C365.644 55.808 365.324 55.928 365.036 56.04C364.748 56.152 364.516 56.248 364.34 56.328L363.836 55.08Z" fill="white"/>
<path d="M381.138 65.6538L380.647 65.4634L381.343 64.0669L381.714 64.2183L381.138 65.6538Z" fill="#C2C2C2"/>
</g>
<rect x="325" y="73" width="32" height="32" rx="3" fill="#3F3F3F"/>
<path d="M338.084 94V84.9531H339.443C340.049 84.9531 340.531 85 340.891 85.0938C341.254 85.1875 341.561 85.3457 341.811 85.5684C342.064 85.7988 342.266 86.0859 342.414 86.4297C342.566 86.7773 342.643 87.1289 342.643 87.4844C342.643 88.1328 342.395 88.6816 341.898 89.1309C342.379 89.2949 342.758 89.582 343.035 89.9922C343.316 90.3984 343.457 90.8711 343.457 91.4102C343.457 92.1172 343.207 92.7148 342.707 93.2031C342.406 93.5039 342.068 93.7129 341.693 93.8301C341.283 93.9434 340.77 94 340.152 94H338.084ZM339.449 88.8379H339.877C340.385 88.8379 340.756 88.7266 340.99 88.5039C341.229 88.2773 341.348 87.9453 341.348 87.5078C341.348 87.082 341.227 86.7598 340.984 86.541C340.742 86.3184 340.391 86.207 339.93 86.207H339.449V88.8379ZM339.449 92.7168H340.293C340.91 92.7168 341.363 92.5957 341.652 92.3535C341.957 92.0918 342.109 91.7598 342.109 91.3574C342.109 90.9668 341.963 90.6387 341.67 90.373C341.385 90.1113 340.875 89.9805 340.141 89.9805H339.449V92.7168Z" fill="white"/>
<path d="M354.526 97.835L354.98 98.0352L352.822 103.03L352.373 102.828L354.526 97.835Z" fill="#C2C2C2"/>
<g opacity="0.8">
<rect x="148" y="39" width="32" height="32" rx="3" fill="#3F3F3F"/>
<path d="M176.176 66.0371H177.734V66.1616C177.734 66.4448 177.701 66.6955 177.634 66.9136C177.569 67.1154 177.459 67.3042 177.304 67.48C176.954 67.8739 176.509 68.0708 175.969 68.0708C175.441 68.0708 174.99 67.8804 174.614 67.4995C174.238 67.117 174.05 66.658 174.05 66.1226C174.05 65.5757 174.241 65.1118 174.624 64.731C175.006 64.3485 175.472 64.1572 176.02 64.1572C176.315 64.1572 176.59 64.2174 176.845 64.3379C177.089 64.4583 177.329 64.6536 177.565 64.9238L177.16 65.312C176.851 64.9002 176.474 64.6943 176.03 64.6943C175.631 64.6943 175.297 64.8319 175.026 65.1069C174.756 65.3771 174.621 65.7157 174.621 66.1226C174.621 66.5425 174.772 66.8883 175.073 67.1602C175.354 67.4124 175.66 67.5386 175.988 67.5386C176.268 67.5386 176.52 67.4442 176.743 67.2554C176.966 67.0649 177.09 66.8371 177.116 66.5718H176.176V66.0371Z" fill="#C2C2C2"/>
<path d="M153.873 50.986C153.975 50.992 154.098 51.001 154.242 51.013C154.392 51.019 154.551 51.025 154.719 51.031C154.893 51.037 155.058 51.04 155.214 51.04C155.334 51.04 155.499 51.04 155.709 51.04C155.919 51.04 156.156 51.04 156.42 51.04C156.69 51.04 156.972 51.04 157.266 51.04C157.56 51.04 157.851 51.04 158.139 51.04C158.433 51.04 158.709 51.04 158.967 51.04C159.225 51.04 159.453 51.04 159.651 51.04C159.849 51.04 160.002 51.04 160.11 51.04C160.326 51.04 160.521 51.034 160.695 51.022C160.869 51.004 161.01 50.992 161.118 50.986V52.102C161.016 52.096 160.872 52.087 160.686 52.075C160.5 52.063 160.308 52.057 160.11 52.057C160.008 52.057 159.855 52.057 159.651 52.057C159.453 52.057 159.225 52.057 158.967 52.057C158.709 52.057 158.433 52.057 158.139 52.057C157.851 52.057 157.56 52.057 157.266 52.057C156.972 52.057 156.69 52.057 156.42 52.057C156.156 52.057 155.919 52.057 155.709 52.057C155.499 52.057 155.334 52.057 155.214 52.057C154.968 52.057 154.722 52.063 154.476 52.075C154.23 52.081 154.029 52.09 153.873 52.102V50.986Z" fill="white"/>
<path d="M164.209 55.2148V59.3018C164.209 59.8848 164.304 60.311 164.495 60.5806C164.779 60.9702 165.179 61.165 165.694 61.165C166.213 61.165 166.614 60.9702 166.898 60.5806C167.089 60.3198 167.184 59.8936 167.184 59.3018V55.2148H168.208V59.583C168.208 60.2979 167.985 60.8867 167.54 61.3496C167.039 61.8652 166.424 62.123 165.694 62.123C164.965 62.123 164.351 61.8652 163.853 61.3496C163.408 60.8867 163.185 60.2979 163.185 59.583V55.2148H164.209ZM169.838 62V54.7534L174.787 59.9302V55.2148H175.811V62.4131L170.862 57.2495V62H169.838Z" fill="white"/>
<line x1="167.247" y1="49.2475" x2="156.247" y2="60.2475" stroke="white" stroke-width="0.7"/>
</g>
<g opacity="0.8">
<rect x="155" y="73" width="32" height="32" rx="3" fill="#3F3F3F"/>
<path d="M171.72 85.084C171.664 85.164 171.604 85.256 171.54 85.36C171.476 85.456 171.408 85.56 171.336 85.672C171.2 85.88 171.04 86.14 170.856 86.452C170.672 86.756 170.48 87.084 170.28 87.436C170.08 87.788 169.884 88.136 169.692 88.48C169.5 88.824 169.332 89.136 169.188 89.416C169.444 89.216 169.708 89.072 169.98 88.984C170.26 88.888 170.528 88.84 170.784 88.84C171.208 88.84 171.548 88.972 171.804 89.236C172.068 89.492 172.212 89.864 172.236 90.352C172.244 90.56 172.248 90.796 172.248 91.06C172.248 91.316 172.248 91.568 172.248 91.816C172.256 92.064 172.268 92.28 172.284 92.464C172.3 92.744 172.392 92.944 172.56 93.064C172.736 93.176 172.936 93.232 173.16 93.232C173.464 93.232 173.736 93.148 173.976 92.98C174.224 92.812 174.44 92.588 174.624 92.308C174.816 92.02 174.976 91.708 175.104 91.372C175.24 91.028 175.348 90.684 175.428 90.34L176.436 91.168C176.228 91.832 175.968 92.416 175.656 92.92C175.344 93.416 174.968 93.804 174.528 94.084C174.088 94.372 173.568 94.516 172.968 94.516C172.536 94.516 172.184 94.436 171.912 94.276C171.648 94.116 171.452 93.916 171.324 93.676C171.204 93.436 171.136 93.188 171.12 92.932C171.104 92.7 171.092 92.452 171.084 92.188C171.084 91.916 171.08 91.652 171.072 91.396C171.072 91.132 171.064 90.904 171.048 90.712C171.04 90.472 170.968 90.288 170.832 90.16C170.696 90.024 170.504 89.956 170.256 89.956C169.96 89.956 169.672 90.044 169.392 90.22C169.12 90.396 168.872 90.628 168.648 90.916C168.432 91.204 168.248 91.508 168.096 91.828C168.008 92.004 167.916 92.216 167.82 92.464C167.724 92.704 167.628 92.956 167.532 93.22C167.444 93.476 167.364 93.72 167.292 93.952C167.22 94.184 167.16 94.376 167.112 94.528L165.792 94.084C165.944 93.676 166.132 93.216 166.356 92.704C166.58 92.184 166.828 91.64 167.1 91.072C167.372 90.496 167.648 89.928 167.928 89.368C168.208 88.808 168.476 88.276 168.732 87.772C168.988 87.268 169.216 86.828 169.416 86.452C169.616 86.076 169.768 85.792 169.872 85.6C169.952 85.456 170.036 85.3 170.124 85.132C170.212 84.956 170.296 84.76 170.376 84.544L171.72 85.084Z" fill="white"/>
<path d="M182.493 102V98.2305H183.059C183.311 98.2305 183.512 98.25 183.662 98.2891C183.813 98.3281 183.941 98.394 184.045 98.4868C184.151 98.5828 184.235 98.7025 184.297 98.8457C184.36 98.9906 184.392 99.137 184.392 99.2852C184.392 99.5553 184.289 99.784 184.082 99.9712C184.282 100.04 184.44 100.159 184.556 100.33C184.673 100.499 184.731 100.696 184.731 100.921C184.731 101.215 184.627 101.465 184.419 101.668C184.294 101.793 184.153 101.88 183.997 101.929C183.826 101.976 183.612 102 183.354 102H182.493ZM183.062 99.8491H183.24C183.451 99.8491 183.606 99.8027 183.704 99.71C183.803 99.6156 183.853 99.4772 183.853 99.2949C183.853 99.1175 183.802 98.9832 183.701 98.8921C183.6 98.7993 183.454 98.7529 183.262 98.7529H183.062V99.8491ZM183.062 101.465H183.413C183.67 101.465 183.859 101.415 183.979 101.314C184.106 101.205 184.17 101.067 184.17 100.899C184.17 100.736 184.109 100.599 183.987 100.489C183.868 100.38 183.656 100.325 183.35 100.325H183.062V101.465Z" fill="#C2C2C2"/>
</g>
<g opacity="0.8">
<rect x="175" y="5" width="32" height="32" rx="3" fill="#3F3F3F"/>
<path d="M193.102 18.2363H189.949V20.4102H192.99V21.6934H189.949V26H188.584V16.9531H193.102V18.2363Z" fill="white"/>
<path d="M203.21 32.3716L201.98 30.2305H202.634L203.496 31.7368L204.36 30.2305H205.015L203.779 32.3716V34H203.21V32.3716Z" fill="#C2C2C2"/>
</g>
<g opacity="0.8">
<rect x="182" y="39" width="32" height="32" rx="3" fill="#3F3F3F"/>
<path d="M196.449 54.5625L199.971 50.9531H201.793L197.703 55.0488L201.816 60H199.988L196.73 55.9746L196.449 56.2559V60H195.084V50.9531H196.449V54.5625Z" fill="white"/>
<path d="M209.354 65.7051H210.979V64.2305H211.548V68H210.979V66.2397H209.354V68H208.785V64.2305H209.354V65.7051Z" fill="#C2C2C2"/>
</g>
<g opacity="0.8">
<rect x="189" y="73" width="32" height="32" rx="3" fill="#3F3F3F"/>
<path d="M205.236 89.2891H208.975V89.5879C208.975 90.2676 208.895 90.8691 208.734 91.3926C208.578 91.877 208.314 92.3301 207.943 92.752C207.104 93.6973 206.035 94.1699 204.738 94.1699C203.473 94.1699 202.389 93.7129 201.486 92.7988C200.584 91.8809 200.133 90.7793 200.133 89.4941C200.133 88.1816 200.592 87.0684 201.51 86.1543C202.428 85.2363 203.545 84.7773 204.861 84.7773C205.568 84.7773 206.229 84.9219 206.842 85.2109C207.428 85.5 208.004 85.9688 208.57 86.6172L207.598 87.5488C206.855 86.5605 205.951 86.0664 204.885 86.0664C203.928 86.0664 203.125 86.3965 202.477 87.0566C201.828 87.7051 201.504 88.5176 201.504 89.4941C201.504 90.502 201.865 91.332 202.588 91.9844C203.264 92.5898 203.996 92.8926 204.785 92.8926C205.457 92.8926 206.061 92.666 206.596 92.2129C207.131 91.7559 207.43 91.209 207.492 90.5723H205.236V89.2891Z" fill="white"/>
<path d="M215.228 102V97.9741L217.977 100.85V98.2305H218.546V102.229L215.797 99.3608V102H215.228Z" fill="#C2C2C2"/>
</g>
<g opacity="0.8">
<rect x="141" y="5" width="32" height="32" rx="3" fill="#3F3F3F"/>
<path d="M170.08 30.7651V34H169.511V30.7651H168.644V30.2305H170.944V30.7651H170.08Z" fill="#C2C2C2"/>
<path d="M147.746 16.786C148.01 16.786 148.247 16.852 148.457 16.984C148.667 17.11 148.835 17.278 148.961 17.488C149.087 17.698 149.15 17.935 149.15 18.199C149.15 18.457 149.087 18.694 148.961 18.91C148.835 19.12 148.667 19.288 148.457 19.414C148.247 19.54 148.01 19.603 147.746 19.603C147.488 19.603 147.251 19.54 147.035 19.414C146.825 19.288 146.654 19.12 146.522 18.91C146.396 18.694 146.333 18.457 146.333 18.199C146.333 17.935 146.396 17.698 146.522 17.488C146.654 17.278 146.825 17.11 147.035 16.984C147.251 16.852 147.488 16.786 147.746 16.786ZM147.746 19.063C147.986 19.063 148.19 18.979 148.358 18.811C148.526 18.643 148.61 18.439 148.61 18.199C148.61 18.037 148.571 17.893 148.493 17.767C148.421 17.635 148.319 17.53 148.187 17.452C148.055 17.374 147.908 17.335 147.746 17.335C147.59 17.335 147.446 17.374 147.314 17.452C147.182 17.53 147.077 17.635 146.999 17.767C146.921 17.893 146.882 18.037 146.882 18.199C146.882 18.355 146.921 18.502 146.999 18.64C147.077 18.772 147.182 18.877 147.314 18.955C147.446 19.027 147.59 19.063 147.746 19.063Z" fill="white"/>
<path d="M157.684 21.2148V25.3018C157.684 25.8848 157.779 26.311 157.969 26.5806C158.253 26.9702 158.653 27.165 159.169 27.165C159.688 27.165 160.089 26.9702 160.373 26.5806C160.563 26.3198 160.659 25.8936 160.659 25.3018V21.2148H161.683V25.583C161.683 26.2979 161.46 26.8867 161.015 27.3496C160.514 27.8652 159.898 28.123 159.169 28.123C158.439 28.123 157.826 27.8652 157.328 27.3496C156.882 26.8867 156.66 26.2979 156.66 25.583V21.2148H157.684ZM164.337 21.2148V25.3018C164.337 25.8848 164.432 26.311 164.623 26.5806C164.907 26.9702 165.307 27.165 165.822 27.165C166.341 27.165 166.742 26.9702 167.026 26.5806C167.217 26.3198 167.312 25.8936 167.312 25.3018V21.2148H168.336V25.583C168.336 26.2979 168.113 26.8867 167.668 27.3496C167.167 27.8652 166.552 28.123 165.822 28.123C165.093 28.123 164.479 27.8652 163.981 27.3496C163.536 26.8867 163.313 26.2979 163.313 25.583V21.2148H164.337Z" fill="white"/>
<line x1="160.247" y1="15.2475" x2="149.247" y2="26.2475" stroke="white" stroke-width="0.7"/>
</g>
</svg>
